# xmcd CD database file
#
# Track frame offsets:
#	150
#	20601
#	24048
#	47715
#	48806
#	70669
#	76477
#	92289
#	103904
#	130870
#	142277
#	156624
#	171195
#	190460
#	201964
#
# Disc length: 3058 seconds
#
# Revision: 0
# Processed by: cddbd v1.5.1PL2 Copyright (c) Steve Scherf et al.
# Submitted via: CDex 1.50
#
DISCID=ce0bf00f
DTITLE=Inflatable Sideshow - Deluxe
DYEAR=1999
DGENRE=Jazz
TTITLE0=Niabinghi Jazz
TTITLE1=Bone Frequency
TTITLE2=Parkin' 37
TTITLE3=Fragmented Diminuendo
TTITLE4=Future Days
TTITLE5=Golden Lines
TTITLE6=Melanie
TTITLE7=Waiting for the sun
TTITLE8=if you'r alone
TTITLE9=Jazz on Fire
TTITLE10=Zone Trippa
TTITLE11=Party in Gomorah
TTITLE12=Think who you confess to
TTITLE13=Mr. Moon
TTITLE14=Sphere of Light
EXTD=YEAR: 1999
EXTT0=
EXTT1=
EXTT2=
EXTT3=
EXTT4=
EXTT5=
EXTT6=
EXTT7=
EXTT8=
EXTT9=
EXTT10=
EXTT11=
EXTT12=
EXTT13=
EXTT14=
PLAYORDER=
